<?xml version="1.0" encoding="UTF-8" standalone="no"?>
<svg
   xmlns:dc="http://purl.org/dc/elements/1.1/"
   xmlns:cc="http://creativecommons.org/ns#"
   xmlns:rdf="http://www.w3.org/1999/02/22-rdf-syntax-ns#"
   xmlns:svg="http://www.w3.org/2000/svg"
   xmlns="http://www.w3.org/2000/svg"
   xmlns:sodipodi="http://sodipodi.sourceforge.net/DTD/sodipodi-0.dtd"
   xmlns:inkscape="http://www.inkscape.org/namespaces/inkscape"
   width="24"
   height="24"
   viewBox="0 0 24 24"
   version="1.1"
   id="svg10"
   sodipodi:docname="material.io-baseline-weekend-48px.svg"
   inkscape:version="0.92.2 5c3e80d, 2017-08-06">
  <metadata
     id="metadata14">
    <rdf:RDF>
      <cc:Work
         rdf:about="">
        <dc:format>image/svg+xml</dc:format>
        <dc:type
           rdf:resource="http://purl.org/dc/dcmitype/StillImage" />
        <dc:title></dc:title>
      </cc:Work>
    </rdf:RDF>
  </metadata>
  <sodipodi:namedview
     pagecolor="#ffffff"
     bordercolor="#666666"
     borderopacity="1"
     objecttolerance="10"
     gridtolerance="10"
     guidetolerance="10"
     inkscape:pageopacity="0"
     inkscape:pageshadow="2"
     inkscape:window-width="1549"
     inkscape:window-height="845"
     id="namedview12"
     showgrid="false"
     inkscape:zoom="9.8333333"
     inkscape:cx="9.3036542"
     inkscape:cy="22.27291"
     inkscape:window-x="0"
     inkscape:window-y="0"
     inkscape:window-maximized="0"
     inkscape:current-layer="svg10"
     inkscape:pagecheckerboard="false"
     inkscape:showpageshadow="false"
     showborder="true" />
  <defs
     id="defs3">
    <path
       id="a"
       d="M 0,0 H 48 V 48 H 0 Z"
       inkscape:connector-curvature="0" />
  </defs>
  <path
     d="m 21,10 c -1.105,0 -2,0.895 -2,2 v 3 H 5 V 12 C 5,10.895 4.105,10 3,10 1.895,10 1,10.895 1,12 v 5 c 0,1.1 0.9,2 2,2 h 18 c 1.1,0 2,-0.9 2,-2 v -5 c 0,-1.105 -0.895,-2 -2,-2 z M 18,5 H 6 C 4.9,5 4,5.9 4,7 V 9.155 C 5.16,9.57 6,10.67 6,11.97 V 14 h 12 v -2.03 c 0,-1.3 0.84,-2.4 2,-2.815 V 7 C 20,5.9 19.1,5 18,5 Z"
     clip-path="none"
     id="path8"
     style="display:inline;fill:#000000;stroke-width:0.5"
     inkscape:connector-curvature="0" />
</svg>
