<?xml version="1.0" encoding="UTF-8" standalone="no"?>
<svg
   xmlns:dc="http://purl.org/dc/elements/1.1/"
   xmlns:cc="http://creativecommons.org/ns#"
   xmlns:rdf="http://www.w3.org/1999/02/22-rdf-syntax-ns#"
   xmlns:svg="http://www.w3.org/2000/svg"
   xmlns="http://www.w3.org/2000/svg"
   xmlns:sodipodi="http://sodipodi.sourceforge.net/DTD/sodipodi-0.dtd"
   xmlns:inkscape="http://www.inkscape.org/namespaces/inkscape"
   width="24"
   height="24"
   viewBox="0 0 24 24"
   version="1.1"
   id="svg6"
   sodipodi:docname="material.io-baseline-wb_incandescent-24px--blink.svg"
   inkscape:version="0.92.2 5c3e80d, 2017-08-06">
  <metadata
     id="metadata12">
    <rdf:RDF>
      <cc:Work
         rdf:about="">
        <dc:format>image/svg+xml</dc:format>
        <dc:type
           rdf:resource="http://purl.org/dc/dcmitype/StillImage" />
        <dc:title></dc:title>
      </cc:Work>
    </rdf:RDF>
  </metadata>
  <defs
     id="defs10" />
  <sodipodi:namedview
     pagecolor="#ffffff"
     bordercolor="#666666"
     borderopacity="1"
     objecttolerance="10"
     gridtolerance="10"
     guidetolerance="10"
     inkscape:pageopacity="0"
     inkscape:pageshadow="2"
     inkscape:window-width="1927"
     inkscape:window-height="1077"
     id="namedview8"
     showgrid="false"
     fit-margin-top="0"
     fit-margin-left="0"
     fit-margin-right="0"
     fit-margin-bottom="0"
     showguides="true"
     inkscape:guide-bbox="true"
     inkscape:measure-start="899.727,2047.97"
     inkscape:measure-end="1000.98,2047.97"
     inkscape:zoom="14.481547"
     inkscape:cx="-13.528584"
     inkscape:cy="4.59363"
     inkscape:window-x="0"
     inkscape:window-y="0"
     inkscape:window-maximized="0"
     inkscape:current-layer="svg6">
    <sodipodi:guide
       position="899.72746,1718.9167"
       orientation="1,0"
       id="guide4649"
       inkscape:locked="false" />
    <sodipodi:guide
       position="1000.9756,1659.0882"
       orientation="1,0"
       id="guide4651"
       inkscape:locked="false" />
    <sodipodi:guide
       position="1102.2237,2123.9091"
       orientation="1,0"
       id="guide4653"
       inkscape:locked="false" />
    <sodipodi:guide
       position="1200,2066.4407"
       orientation="1,0"
       id="guide4655"
       inkscape:locked="false" />
  </sodipodi:namedview>
  <rect
     style="display:inline;opacity:1;fill:none;fill-opacity:1;stroke:none;stroke-width:2;stroke-linecap:butt;stroke-miterlimit:4;stroke-dasharray:2, 2;stroke-dashoffset:0;stroke-opacity:1;paint-order:normal"
     id="rect4541"
     width="24"
     height="24"
     x="0"
     y="0" />
  <path
     d="m 3.55,18.54 1.41,1.41 1.79,-1.8 -1.41,-1.41 z M 11,22.45 h 2 V 19.5 H 11 Z M 4,10.5 H 1 v 2 h 3 z m 16,0 v 2 h 3 v -2 z m -2.76,7.66 1.79,1.8 1.41,-1.41 -1.8,-1.79 z"
     id="path4"
     inkscape:connector-curvature="0"
     style="display:inline;stroke-width:1"
     sodipodi:nodetypes="ccccccccccccccccccccccccc" />
  <path
     style="display:inline;stroke-width:1"
     d="M 9,1.5 V 6.31 C 7.21,7.35 6,9.28 6,11.5 c 0,3.31 2.69,6 6,6 3.31,0 6,-2.69 6,-6 C 18,9.28 16.79,7.35 15,6.31 V 1.5 Z m 1.040176,1.0402 h 3.919648 V 6.31 a 1.0402861,1.0402861 0 0 0 0.517617,0.8994 c 1.482723,0.8615 2.482383,2.4486 2.482383,4.2906 0,2.7464 -2.213387,4.9598 -4.959824,4.9598 -2.7464371,0 -4.9598242,-2.2134 -4.9598242,-4.9598 0,-1.842 0.9996598,-3.4291 2.4823828,-4.2906 A 1.0402861,1.0402861 0 0 0 10.040176,6.31 Z"
     id="path822"
     inkscape:connector-curvature="0" />
  <path
     style="display:inline;fill:#000000;stroke-width:1"
     d="M 11.022246,3.5222 V 6.31 A 2.0224392,2.0224392 0 0 1 10.015918,8.0585 C 8.8233009,8.7515 8.0222461,10.0148 8.0222461,11.5 c 0,2.2144 1.7633868,3.9778 3.9777539,3.9778 V 3.5222 Z"
     id="path4637"
     inkscape:connector-curvature="0" />
</svg>
