<?xml version="1.0" encoding="UTF-8" standalone="no"?>
<svg
   xmlns:dc="http://purl.org/dc/elements/1.1/"
   xmlns:cc="http://creativecommons.org/ns#"
   xmlns:rdf="http://www.w3.org/1999/02/22-rdf-syntax-ns#"
   xmlns:svg="http://www.w3.org/2000/svg"
   xmlns="http://www.w3.org/2000/svg"
   xmlns:sodipodi="http://sodipodi.sourceforge.net/DTD/sodipodi-0.dtd"
   xmlns:inkscape="http://www.inkscape.org/namespaces/inkscape"
   inkscape:version="1.0beta1 (fe3e306, 2019-09-17)"
   sodipodi:docname="Controller-Offline.svg"
   width="24"
   height="24"
   viewBox="0 0 24 24"
   version="1.1"
   id="svg853">
  <sodipodi:namedview
     inkscape:current-layer="svg853"
     inkscape:window-maximized="0"
     inkscape:window-y="23"
     inkscape:window-x="0"
     inkscape:cy="560"
     inkscape:cx="400"
     inkscape:zoom="0.35"
     showgrid="false"
     id="namedview845"
     inkscape:window-height="907"
     inkscape:window-width="1600"
     inkscape:pageshadow="2"
     inkscape:pageopacity="0"
     guidetolerance="10"
     gridtolerance="10"
     objecttolerance="10"
     borderopacity="1"
     inkscape:document-rotation="0"
     bordercolor="#666666"
     pagecolor="#ffffff" />
  <metadata
     id="metadata857">
    <rdf:RDF>
      <cc:Work
         rdf:about="">
        <dc:format>image/svg+xml</dc:format>
        <dc:type
           rdf:resource="http://purl.org/dc/dcmitype/StillImage" />
        <dc:title></dc:title>
      </cc:Work>
    </rdf:RDF>
  </metadata>
  <defs
     id="defs835">
    <style
       id="style833">.a{fill:#e3e5e8;}.b,.d{fill:#c7ccd2;}.c,.d{stroke:none;}</style>
  </defs>
  <g
     transform="translate(-28 -18)"
     id="g851">
    <g
       class="a"
       transform="translate(28 18)"
       id="g841">
      <path
         class="c"
         d="M 18.79290008544922 23.5 L 5.207099914550781 23.5 L 0.5 18.79290008544922 L 0.5 5.207099914550781 L 5.207099914550781 0.5 L 18.79290008544922 0.5 L 23.5 5.207099914550781 L 23.5 18.79290008544922 L 18.79290008544922 23.5 Z"
         id="path837"
         style="fill:#f7eded;fill-opacity:1" />
      <path
         class="d"
         d="M 5.414220809936523 1 L 1 5.414220809936523 L 1 18.58578109741211 L 5.414220809936523 23 L 18.58578109741211 23 L 23 18.58578109741211 L 23 5.414220809936523 L 18.58578109741211 1 L 5.414220809936523 1 M 5 0 L 19 0 L 24 5 L 24 19 L 19 24 L 5 24 L 0 19 L 0 5 L 5 0 Z"
         id="path839"
         style="fill:#ff9090;fill-opacity:1" />
    </g>
    <rect
       class="b"
       width="12"
       height="4"
       transform="translate(34 37)"
       id="rect843"
       style="fill:#ff9090;fill-opacity:1" />
    <path
       class="b"
       d="M-.488.465H6.52V5.127H-.488Z"
       transform="translate(28.05 22.293) rotate(-45)"
       id="path845"
       style="fill:#ff9090;fill-opacity:1" />
    <rect
       class="b"
       width="12"
       height="1"
       transform="translate(34 29)"
       id="rect847"
       style="fill:#ff9090;fill-opacity:1" />
    <rect
       class="b"
       width="6"
       height="1"
       transform="translate(37 31)"
       id="rect849"
       style="fill:#ff9090;fill-opacity:1" />
  </g>
</svg>
