<svg xmlns="http://www.w3.org/2000/svg" xmlns:xlink="http://www.w3.org/1999/xlink" width="96" height="63" viewBox="0 0 96 63"><defs><style>.a{fill:url(#a);}.b{fill:url(#b);}.c{stroke:#ffeb90;fill:url(#c);}.d{stroke:none;}.e{fill:none;}</style><linearGradient id="a" x1="0.5" x2="0.5" y2="1" gradientUnits="objectBoundingBox"><stop offset="0" stop-color="#f3f4f5" stop-opacity="0"/><stop offset="1" stop-color="#e3e5e8"/></linearGradient><linearGradient id="b" x1="0.5" x2="0.5" y2="0.766" gradientUnits="objectBoundingBox"><stop offset="0" stop-color="#c7ccd2"/><stop offset="1" stop-color="#e3e5e8" stop-opacity="0"/></linearGradient><linearGradient id="c" x1="0.5" y1="1" x2="0.5" gradientUnits="objectBoundingBox"><stop offset="0" stop-color="#fff"/><stop offset="1" stop-color="#fff8d3"/></linearGradient></defs><g transform="translate(-49 -278)"><path class="a" d="M96,33V76L76,96H20L0,76V33Z" transform="translate(49 245)"/><rect class="b" width="56" height="24" rx="3" transform="translate(69 317)"/><g class="c" transform="translate(75 326)"><circle class="d" cx="4" cy="4" r="4"/><circle class="e" cx="4" cy="4" r="3.5"/></g><g class="c" transform="translate(99 326)"><circle class="d" cx="4" cy="4" r="4"/><circle class="e" cx="4" cy="4" r="3.5"/></g><g class="c" transform="translate(87 326)"><circle class="d" cx="4" cy="4" r="4"/><circle class="e" cx="4" cy="4" r="3.5"/></g><g class="c" transform="translate(111 326)"><circle class="d" cx="4" cy="4" r="4"/><circle class="e" cx="4" cy="4" r="3.5"/></g></g></svg>