<svg xmlns="http://www.w3.org/2000/svg" width="24" height="24" viewBox="0 0 24 24"><defs><style>.a{fill:#e3e5e8;}.b,.d{fill:#c7ccd2;}.c,.d{stroke:none;}</style></defs><g transform="translate(-28 -18)"><g class="a" transform="translate(28 18)"><path class="c" d="M 18.79290008544922 23.5 L 5.207099914550781 23.5 L 0.5 18.79290008544922 L 0.5 5.207099914550781 L 5.207099914550781 0.5 L 18.79290008544922 0.5 L 23.5 5.207099914550781 L 23.5 18.79290008544922 L 18.79290008544922 23.5 Z"/><path class="d" d="M 5.414220809936523 1 L 1 5.414220809936523 L 1 18.58578109741211 L 5.414220809936523 23 L 18.58578109741211 23 L 23 18.58578109741211 L 23 5.414220809936523 L 18.58578109741211 1 L 5.414220809936523 1 M 5 0 L 19 0 L 24 5 L 24 19 L 19 24 L 5 24 L 0 19 L 0 5 L 5 0 Z"/></g><rect class="b" width="12" height="4" transform="translate(34 37)"/><path class="b" d="M-.488.465H6.52V5.127H-.488Z" transform="translate(28.05 22.293) rotate(-45)"/><rect class="b" width="12" height="1" transform="translate(34 29)"/><rect class="b" width="6" height="1" transform="translate(37 31)"/></g></svg>