<svg xmlns="http://www.w3.org/2000/svg" width="120" height="96" viewBox="0 0 120 96">
  <path id="Path_1858" data-name="Path 1858" d="M164.08,68.509V57.843h-72v12h-32v83.992h1.685l118.315.008V68.509Zm13.333,28h1.333v16h-1.333ZM166.747,69.843h8v1.333h-8Zm1.333,2.667h5.333c.032,4.017-1.668,6.186-5.333,6.667Zm-6.667,16h1.333v9.333h-1.333ZM141.524,59.346l15.889-.17v1.333h-16Zm-2.777,2.5H160.08V88.509h-8c0,5.137,2.873,9.29,8,9.333v2.667H138.747Zm21.333,28v6.667c-5.013-.043-6.331-3.962-6.667-6.667Zm-52-30.667h14.667v1.333H108.08Zm-12,2.667h38.667v38.667H121.413V93.843h-6.667V84.509h-1.333a9.39,9.39,0,0,0-9.333,9.333h-8Zm9.333,32c0-.09,0-.18.007-.316-.02-2.862,3.071-7.642,7.993-7.684v8Zm9.333,1.333v1.333H104.08V95.176Zm-21.333-16h1.333v9.333H93.413Zm0,21.333h1.333v9.333H93.413ZM64.08,93.843v-20h28v5.333H82.747a9.39,9.39,0,0,0,9.333,9.333v5.333Zm28-13.333v6.667c-5.013-.043-7.984-4-8-6.667Zm-28,17.333h28v2.667H82.747a9.539,9.539,0,0,0,9.42,9.419v0l-.086,7.912h-28Zm28,4v6.667c-3.835-.162-7.038-2.074-8-6.667Zm1.333,20h0c.043,5.127,5.53,9.333,10.667,9.333h0v-9.333h1.333v28H64.08v-28Zm10.667-1.333H93.413v-1.333H104.08Zm-1.333,9.333c-3.292-.226-7.961-4.161-8-8h8Zm-40-17.333H61.413v-8h1.333Zm0-25.333H61.413v-8h1.333Zm28,65.333h-16v-1.333h16Zm39.67,0H115.653v-1.333h14.764Zm5.663-16v13.333H109.413V116.509h-4v1.333H96.08v-20h21.333v6.667H164.08v-32h2.667v8c5.137,0,7.957-2.873,8-8h1.333v64Zm40,4v9.333h-36v-9.333Zm-30.667-1.333v-1.333h25.333v1.333Zm33.333,13.333H140.08v-1.333h37.333V140.509h1.333Z" transform="translate(-60.08 -57.843)" fill="#abb2ba"/>
</svg>
